<svg fill="none" stroke-linecap="square" stroke-miterlimit="10" viewBox="0 0 628.801 386.864"
  xmlns="http://www.w3.org/2000/svg">
  <clipPath id="a">
    <path d="M0 0h628.8v386.864H0V0z"/>
  </clipPath>
  <g clip-path="url(#a)">
    <path d="M0 0h628.8v386.864H0z" fill="none"/>
    <path
      d="M.96 11.682c0-1.115.904-2.019 2.019-2.019h240.088a2.019 2.019 0 012.019 2.02v370.922a2.019 2.019 0 01-2.019 2.02H2.98a2.019 2.019 0 01-2.019-2.02z"
      fill="#e3f2fd"
      fill-rule="evenodd"/>
    <path
      d="M25.16 35.44q-.672.953-1.875 1.438-1.203.484-2.812.484-1.625 0-2.89-.765-1.25-.766-1.938-2.157-.688-1.406-.704-3.265v-1.157q0-2.984 1.391-4.64 1.406-1.656 3.938-1.656 2.078 0 3.343 1.062 1.266 1.063 1.547 3.016h-1.75q-.484-2.625-3.125-2.625-1.765 0-2.672 1.234-.906 1.234-.906 3.563v1.093q0 2.235 1.016 3.547 1.015 1.313 2.765 1.313.985 0 1.72-.219.733-.219 1.218-.734v-2.985h-3.078v-1.422h4.812v4.875zm2.208-3.28q0-1.454.562-2.61.579-1.157 1.594-1.782 1.016-.625 2.313-.625 2.015 0 3.25 1.391 1.25 1.39 1.25 3.703v.125q0 1.438-.547 2.578-.547 1.141-1.578 1.782-1.016.64-2.36.64-2 0-3.25-1.39-1.234-1.407-1.234-3.704v-.109zm1.687.202q0 1.64.766 2.64.766.985 2.031.985 1.297 0 2.047-1 .75-1.015.75-2.828 0-1.625-.765-2.625-.766-1.016-2.047-1.016-1.25 0-2.016 1-.766.985-.766 2.844zm8.953-.203q0-1.453.562-2.61.578-1.156 1.594-1.78 1.016-.626 2.313-.626 2.015 0 3.25 1.391 1.25 1.39 1.25 3.703v.125q0 1.438-.547 2.578-.547 1.141-1.578 1.782-1.016.64-2.36.64-2 0-3.25-1.39-1.234-1.407-1.234-3.704v-.109zm1.687.203q0 1.64.766 2.64.766.985 2.031.985 1.297 0 2.047-1 .75-1.015.75-2.828 0-1.625-.766-2.625-.765-1.016-2.046-1.016-1.25 0-2.016 1-.766.985-.766 2.844zm9-.203q0-2.297 1.062-3.656 1.063-1.36 2.828-1.36 1.797 0 2.813 1.266l.078-1.094h1.547v9.625q0 1.907-1.14 3-1.126 1.11-3.048 1.11-1.062 0-2.094-.453-1.015-.454-1.546-1.25l.875-1q1.078 1.328 2.656 1.328 1.219 0 1.906-.688.688-.687.688-1.953v-.844q-1 1.172-2.75 1.172-1.735 0-2.813-1.39-1.062-1.407-1.062-3.813zm1.687.203q0 1.656.688 2.61.687.953 1.921.953 1.594 0 2.329-1.453v-4.5q-.766-1.407-2.313-1.407-1.234 0-1.937.953-.688.954-.688 2.844zm11.014 4.813h-1.688v-14h1.688v14zm6.777.187q-2 0-3.265-1.312-1.25-1.328-1.25-3.532v-.312q0-1.469.562-2.61.563-1.156 1.563-1.796 1.015-.657 2.187-.657 1.922 0 2.984 1.266 1.063 1.266 1.063 3.625v.688h-6.672q.031 1.468.844 2.375.828.89 2.078.89.89 0 1.516-.36.625-.374 1.078-.968l1.031.797q-1.234 1.906-3.719 1.906zm-.203-8.844q-1.016 0-1.719.75-.687.735-.843 2.079h4.937v-.125q-.078-1.282-.703-1.985-.61-.719-1.672-.719zm14.252 2.485l-1.625 1.687v4.485h-1.734V23.909h1.734v6.563l5.907-6.563h2.109l-5.219 5.86 5.625 7.406h-2.093l-4.704-6.172zm13.94 5.203q-.984 1.156-2.89 1.156-1.578 0-2.406-.922-.813-.922-.829-2.703v-6.422h1.688v6.375q0 2.235 1.828 2.235 1.922 0 2.563-1.438v-7.172h1.687v9.86h-1.61l-.03-.969zm12.55-3.844q0 2.25-1.046 3.625-1.031 1.375-2.781 1.375-1.875 0-2.891-1.328l-.078 1.14h-1.547v-14h1.672v5.235q1.031-1.266 2.812-1.266 1.797 0 2.828 1.36 1.032 1.344 1.032 3.703v.156zm-1.687-.203q0-1.719-.672-2.656-.656-.938-1.906-.938-1.672 0-2.406 1.547v4.266q.781 1.547 2.422 1.547 1.218 0 1.89-.938.672-.937.672-2.828zm7.889 5.203q-2 0-3.266-1.312-1.25-1.328-1.25-3.532v-.312q0-1.469.563-2.61.562-1.156 1.562-1.796 1.016-.657 2.188-.657 1.922 0 2.984 1.266 1.063 1.266 1.063 3.625v.688h-6.672q.031 1.468.844 2.375.828.89 2.078.89.89 0 1.515-.36.625-.374 1.078-.968l1.032.797q-1.235 1.906-3.72 1.906zm-.203-8.844q-1.016 0-1.719.75-.687.735-.844 2.079h4.938v-.125q-.078-1.282-.703-1.985-.61-.719-1.672-.719zm10.774.313q-.39-.063-.844-.063-1.656 0-2.25 1.407v7h-1.671v-9.86h1.64l.016 1.141q.828-1.313 2.36-1.313.484 0 .75.125v1.563zm3.141-1.516l.047 1.235q1.125-1.407 2.953-1.407 3.125 0 3.156 3.516v6.516h-1.687v-6.516q-.016-1.078-.5-1.578-.469-.516-1.484-.516-.813 0-1.438.438-.61.437-.969 1.156v7.016h-1.672v-9.86h1.594zm12.778 10.047q-2 0-3.265-1.312-1.25-1.328-1.25-3.532v-.312q0-1.469.562-2.61.563-1.156 1.563-1.796 1.015-.657 2.187-.657 1.922 0 2.985 1.266 1.062 1.266 1.062 3.625v.688h-6.672q.031 1.468.844 2.375.828.89 2.078.89.89 0 1.516-.36.625-.374 1.078-.968l1.031.797q-1.234 1.906-3.719 1.906zm-.203-8.844q-1.015 0-1.719.75-.687.735-.843 2.079h4.937v-.125q-.078-1.282-.703-1.985-.61-.719-1.672-.719zm8.29-3.593v2.39h1.844v1.313h-1.844v6.11q0 .593.235.89.25.297.843.297.297 0 .813-.11v1.36q-.672.187-1.297.187-1.125 0-1.703-.687-.578-.688-.578-1.938v-6.11h-1.797v-1.312h1.797v-2.39h1.687zm7.891 12.437q-2 0-3.265-1.312-1.25-1.328-1.25-3.532v-.312q0-1.469.562-2.61.563-1.156 1.563-1.796 1.015-.657 2.187-.657 1.922 0 2.985 1.266 1.062 1.266 1.062 3.625v.688h-6.672q.032 1.468.844 2.375.828.89 2.078.89.89 0 1.516-.36.625-.374 1.078-.968l1.031.797q-1.234 1.906-3.719 1.906zm-.203-8.844q-1.015 0-1.718.75-.688.735-.844 2.079h4.937v-.125q-.078-1.282-.703-1.985-.61-.719-1.672-.719zm11.743 6.047q0-.687-.515-1.062-.516-.375-1.797-.64-1.281-.282-2.031-.657-.75-.39-1.11-.922-.36-.531-.36-1.266 0-1.203 1.017-2.03 1.03-.845 2.625-.845 1.671 0 2.718.86t1.047 2.219h-1.687q0-.704-.594-1.204t-1.484-.5q-.922 0-1.438.407-.516.39-.516 1.047 0 .609.485.921.484.313 1.734.594 1.266.281 2.047.672.781.39 1.156.938.39.546.39 1.343 0 1.328-1.062 2.125-1.046.797-2.734.797-1.187 0-2.11-.422-.906-.422-1.421-1.172-.516-.75-.516-1.625h1.688q.047.844.672 1.344.64.5 1.687.5.953 0 1.531-.39.578-.391.578-1.032zm16.254-3.515h-5.75v4.687h6.688v1.438h-8.422V23.909h8.328v1.438h-6.594v4.265h5.75v1.438zm4.447-3.735l.047 1.235q1.125-1.407 2.953-1.407 3.125 0 3.157 3.516v6.516h-1.688v-6.516q-.015-1.078-.5-1.578-.469-.516-1.484-.516-.813 0-1.438.438-.61.437-.968 1.156v7.016h-1.672v-9.86h1.593zm8.294 4.844q0-2.297 1.063-3.656 1.062-1.36 2.828-1.36 1.797 0 2.812 1.266l.078-1.094h1.547v9.625q0 1.907-1.14 3-1.125 1.11-3.047 1.11-1.063 0-2.094-.453-1.016-.454-1.547-1.25l.875-1q1.078 1.328 2.656 1.328 1.22 0 1.907-.688.687-.687.687-1.953v-.844q-1 1.172-2.75 1.172-1.734 0-2.812-1.39-1.063-1.407-1.063-3.813zm1.688.203q0 1.656.687 2.61.688.953 1.922.953 1.594 0 2.328-1.453v-4.5q-.765-1.407-2.312-1.407-1.235 0-1.938.953-.687.954-.687 2.844zm11.013 4.813h-1.687v-9.86h1.687v9.86zm-1.828-12.469q0-.406.25-.688.25-.296.735-.296.5 0 .75.296.265.282.265.688 0 .406-.265.687-.25.266-.75.266-.485 0-.735-.266-.25-.28-.25-.687zm6.121 2.61l.047 1.234q1.125-1.407 2.953-1.407 3.125 0 3.157 3.516v6.516h-1.688v-6.516q-.015-1.078-.5-1.578-.469-.516-1.484-.516-.813 0-1.438.438-.61.437-.968 1.156v7.016h-1.672v-9.86h1.593zm12.778 10.046q-2 0-3.265-1.312-1.25-1.328-1.25-3.532v-.312q0-1.469.562-2.61.563-1.156 1.563-1.796 1.015-.657 2.187-.657 1.922 0 2.985 1.266 1.062 1.266 1.062 3.625v.688h-6.672q.032 1.468.844 2.375.828.89 2.078.89.89 0 1.516-.36.625-.374 1.078-.968l1.031.797q-1.234 1.906-3.719 1.906zm-.203-8.844q-1.015 0-1.718.75-.688.735-.844 2.079h4.937v-.125q-.078-1.282-.703-1.985-.61-.719-1.672-.719z"
      fill="#666"/>
    <path
      d="M27.968 112.889c0-.713.578-1.291 1.291-1.291h187.528a1.291 1.291 0 011.291 1.29v153.545c0 .713-.578 1.29-1.291 1.29H29.259a1.291 1.291 0 01-1.291-1.29z"
      fill="#fff3e0"
      fill-rule="evenodd"/>
    <path
      d="M91.419 134.693q-.25 2.094-1.563 3.25-1.297 1.14-3.468 1.14-2.344 0-3.766-1.687-1.422-1.688-1.422-4.516v-1.265q0-1.86.656-3.25.672-1.407 1.875-2.157 1.219-.765 2.813-.765 2.11 0 3.39 1.187 1.282 1.172 1.485 3.266h-1.766q-.219-1.578-.984-2.281-.766-.72-2.125-.72-1.672 0-2.625 1.235-.953 1.235-.953 3.532v1.28q0 2.157.89 3.438.907 1.266 2.532 1.266 1.453 0 2.234-.656.781-.657 1.031-2.297h1.766zm1.674-.813q0-1.453.562-2.61.579-1.155 1.594-1.78 1.016-.625 2.313-.625 2.015 0 3.25 1.39 1.25 1.39 1.25 3.703v.125q0 1.438-.547 2.579-.547 1.14-1.578 1.78-1.016.641-2.36.641-2 0-3.25-1.39-1.234-1.406-1.234-3.703v-.11zm1.687.203q0 1.641.766 2.641.766.984 2.031.984 1.297 0 2.047-1 .75-1.015.75-2.828 0-1.625-.765-2.625-.766-1.015-2.047-1.015-1.25 0-2.016 1-.766.984-.766 2.843zm11-5.046l.047 1.234q1.125-1.406 2.953-1.406 3.125 0 3.156 3.515v6.516h-1.687v-6.516q-.016-1.078-.5-1.578-.47-.515-1.485-.515-.812 0-1.437.437-.61.438-.97 1.156v7.016h-1.671v-9.86h1.594zm14.434 7.25q0-.688-.516-1.063-.515-.375-1.796-.64-1.282-.282-2.032-.657-.75-.39-1.109-.922-.36-.53-.36-1.265 0-1.203 1.016-2.032 1.031-.843 2.625-.843 1.672 0 2.719.86 1.047.858 1.047 2.218h-1.688q0-.703-.593-1.203-.594-.5-1.485-.5-.922 0-1.437.406-.516.39-.516 1.047 0 .61.484.922.485.312 1.735.593 1.265.282 2.047.672.781.39 1.156.938.39.547.39 1.344 0 1.328-1.062 2.125-1.047.796-2.734.796-1.188 0-2.11-.421-.906-.422-1.422-1.172-.515-.75-.515-1.625h1.687q.047.843.672 1.343.64.5 1.688.5.953 0 1.531-.39t.578-1.031zm6.167-9.641v2.39h1.843v1.313h-1.843v6.11q0 .593.234.89.25.297.844.297.297 0 .812-.11v1.36q-.672.187-1.297.187-1.125 0-1.703-.687-.578-.688-.578-1.938v-6.109h-1.797v-1.312h1.797v-2.391h1.688zm8.578 3.906q-.39-.062-.843-.062-1.657 0-2.25 1.406v7h-1.672v-9.86h1.64l.016 1.141q.828-1.312 2.36-1.312.484 0 .75.125v1.562zm7.261 8.344q-.14-.297-.234-1.031-1.172 1.218-2.813 1.218-1.453 0-2.39-.828-.922-.828-.922-2.093 0-1.532 1.156-2.375 1.172-.86 3.297-.86h1.64v-.781q0-.89-.53-1.406-.516-.532-1.548-.532-.906 0-1.515.47-.61.452-.61 1.093h-1.703q0-.734.516-1.422.531-.687 1.422-1.078.906-.406 1.984-.406 1.703 0 2.672.86.969.843 1 2.327v4.531q0 1.36.344 2.172v.14h-1.766zm-2.797-1.281q.797 0 1.5-.407.719-.421 1.031-1.078v-2.015h-1.312q-3.11 0-3.11 1.812 0 .797.532 1.25.531.438 1.36.438zm8.695 1.28h-1.687v-9.858h1.687v9.859zm-1.828-12.468q0-.406.25-.687.25-.297.734-.297.5 0 .75.297.266.28.266.687 0 .406-.266.688-.25.265-.75.265-.484 0-.734-.265-.25-.282-.25-.688zm6.121 2.61l.047 1.234q1.125-1.406 2.953-1.406 3.125 0 3.156 3.515v6.516h-1.687v-6.516q-.016-1.078-.5-1.578-.469-.515-1.485-.515-.812 0-1.437.437-.61.438-.969 1.156v7.016h-1.672v-9.86h1.594zm10.981-2.391v2.39h1.844v1.313h-1.844v6.11q0 .593.235.89.25.297.843.297.297 0 .813-.11v1.36q-.672.187-1.297.187-1.125 0-1.703-.687-.578-.688-.578-1.938v-6.109h-1.797v-1.312h1.797v-2.391h1.687z"
      fill="#666"/>
    <path
      d="M54.645 152.176c0-.202.164-.366.365-.366h136.025a.365.365 0 01.366.366v43.458a.365.365 0 01-.366.365H55.01a.365.365 0 01-.365-.365z"
      fill="#ede7f6"
      fill-rule="evenodd"/>
    <path
      d="M92.327 178.497l3.78-10.938h1.923l-4.922 13.266H91.56l-4.922-13.266h1.906l3.782 10.938zm9.041 2.328h-1.687v-9.86h1.687v9.86zm-1.828-12.469q0-.406.25-.687.25-.297.734-.297.5 0 .75.297.266.28.266.687 0 .406-.266.688-.25.265-.75.265-.484 0-.734-.265-.25-.282-.25-.688zm4.074 7.453q0-1.453.563-2.61.578-1.155 1.594-1.78 1.015-.625 2.312-.625 2.016 0 3.25 1.39 1.25 1.39 1.25 3.703v.125q0 1.438-.547 2.578-.547 1.141-1.578 1.782-1.016.64-2.36.64-2 0-3.25-1.39-1.234-1.407-1.234-3.703v-.11zm1.688.203q0 1.641.765 2.641.766.984 2.032.984 1.297 0 2.047-1 .75-1.015.75-2.828 0-1.625-.766-2.625-.766-1.015-2.047-1.015-1.25 0-2.016 1-.765.984-.765 2.843zm11.233 4.813h-1.687v-14h1.687v14zm8.778 0q-.14-.297-.235-1.031-1.171 1.218-2.812 1.218-1.453 0-2.39-.828-.923-.828-.923-2.094 0-1.53 1.157-2.375 1.172-.859 3.297-.859h1.64v-.781q0-.89-.531-1.406-.516-.532-1.547-.532-.906 0-1.516.47-.609.452-.609 1.093h-1.703q0-.734.516-1.422.53-.688 1.421-1.078.907-.406 1.985-.406 1.703 0 2.672.859.968.844 1 2.328v4.531q0 1.36.343 2.172v.14h-1.765zm-2.797-1.281q.797 0 1.5-.407.719-.422 1.031-1.078v-2.015h-1.312q-3.11 0-3.11 1.812 0 .797.532 1.25.53.438 1.359.438zm9.148-10.97v2.391h1.844v1.313h-1.844v6.11q0 .593.234.89.25.297.844.297.297 0 .813-.11v1.36q-.672.187-1.297.187-1.125 0-1.703-.687-.579-.688-.579-1.938v-6.109h-1.796v-1.313h1.796v-2.39h1.688zm5.641 12.25h-1.687v-9.859h1.687v9.86zm-1.828-12.468q0-.406.25-.687.25-.297.734-.297.5 0 .75.297.266.28.266.687 0 .406-.266.688-.25.265-.75.265-.484 0-.734-.265-.25-.282-.25-.688zm4.074 7.453q0-1.453.563-2.61.578-1.155 1.594-1.78 1.015-.625 2.312-.625 2.016 0 3.25 1.39 1.25 1.39 1.25 3.703v.125q0 1.438-.547 2.578-.547 1.141-1.578 1.782-1.016.64-2.36.64-2 0-3.25-1.39-1.234-1.407-1.234-3.703v-.11zm1.688.203q0 1.641.765 2.641.766.984 2.032.984 1.297 0 2.047-1 .75-1.015.75-2.828 0-1.625-.766-2.625-.766-1.015-2.047-1.015-1.25 0-2.016 1-.765.984-.765 2.843zm10.999-5.047l.047 1.235q1.125-1.406 2.953-1.406 3.125 0 3.156 3.515v6.516h-1.687v-6.516q-.016-1.078-.5-1.578-.469-.516-1.485-.516-.812 0-1.437.438-.61.438-.969 1.156v7.016h-1.672v-9.86h1.594z"
      fill="#666"/>
    <path
      d="M29.364 52.64c0-.209.17-.378.379-.378h189.353a.379.379 0 01.378.379v45.037c0 .21-.17.38-.378.38H29.743a.379.379 0 01-.379-.38z"
      fill="#fff3e0"
      fill-rule="evenodd"/>
    <path
      d="M51.896 77.876q-.25 2.094-1.563 3.25-1.297 1.14-3.469 1.14-2.343 0-3.765-1.687-1.422-1.687-1.422-4.515v-1.266q0-1.86.656-3.25.672-1.406 1.875-2.156 1.219-.766 2.813-.766 2.109 0 3.39 1.188 1.281 1.172 1.485 3.265H50.13q-.219-1.578-.984-2.28-.766-.72-2.125-.72-1.672 0-2.625 1.235-.954 1.234-.954 3.531v1.281q0 2.157.891 3.438.906 1.265 2.531 1.265 1.453 0 2.235-.656.781-.656 1.031-2.297h1.766zm1.674-.812q0-1.453.562-2.61.578-1.156 1.594-1.78 1.016-.626 2.313-.626 2.015 0 3.25 1.39 1.25 1.391 1.25 3.704v.125q0 1.437-.547 2.578-.547 1.14-1.578 1.781-1.016.64-2.36.64-2 0-3.25-1.39-1.234-1.406-1.234-3.703v-.11zm1.687.203q0 1.64.766 2.64.766.985 2.031.985 1.297 0 2.047-1 .75-1.016.75-2.828 0-1.625-.766-2.625-.765-1.016-2.046-1.016-1.25 0-2.016 1-.766.985-.766 2.844zm11-5.047l.046 1.234q1.125-1.406 2.954-1.406 3.125 0 3.156 3.516v6.515h-1.688v-6.515q-.015-1.078-.5-1.578-.468-.516-1.484-.516-.813 0-1.438.438-.609.437-.968 1.156v7.015h-1.672V72.22h1.594zm14.434 7.25q0-.687-.516-1.062-.515-.375-1.797-.641-1.28-.281-2.03-.656-.75-.39-1.11-.922-.36-.531-.36-1.266 0-1.203 1.016-2.031 1.031-.844 2.625-.844 1.672 0 2.719.86 1.047.859 1.047 2.218h-1.688q0-.703-.594-1.203-.593-.5-1.484-.5-.922 0-1.437.406-.516.391-.516 1.047 0 .61.484.922.485.313 1.735.594 1.265.281 2.047.672.78.39 1.156.937.39.547.39 1.344 0 1.328-1.062 2.125-1.047.797-2.734.797-1.188 0-2.11-.422-.906-.422-1.422-1.172-.515-.75-.515-1.625h1.687q.047.844.672 1.344.64.5 1.688.5.953 0 1.53-.39.579-.391.579-1.032zm6.166-9.64v2.39h1.844v1.313h-1.844v6.109q0 .594.235.89.25.297.844.297.296 0 .812-.109v1.36q-.672.187-1.297.187-1.125 0-1.703-.688-.578-.687-.578-1.937v-6.11h-1.797V72.22h1.797v-2.39h1.687zm8.58 3.906q-.392-.063-.845-.063-1.656 0-2.25 1.406v7H90.67V72.22h1.641l.016 1.14q.828-1.312 2.36-1.312.483 0 .75.125v1.563zm7.26 8.343q-.14-.296-.234-1.03-1.172 1.218-2.813 1.218-1.453 0-2.39-.828-.922-.828-.922-2.094 0-1.531 1.156-2.375 1.172-.86 3.297-.86h1.64v-.78q0-.891-.531-1.407-.516-.531-1.547-.531-.906 0-1.515.469-.61.453-.61 1.093h-1.703q0-.734.516-1.421.53-.688 1.422-1.079.906-.406 1.984-.406 1.703 0 2.672.86.969.843 1 2.328v4.53q0 1.36.344 2.173v.14h-1.766zM99.9 80.8q.797 0 1.5-.407.719-.422 1.031-1.078v-2.016h-1.312q-3.11 0-3.11 1.813 0 .797.532 1.25.53.437 1.359.437zm8.695 1.28h-1.688V72.22h1.688v9.86zm-1.828-12.468q0-.407.25-.688.25-.297.734-.297.5 0 .75.297.266.281.266.688 0 .406-.266.687-.25.266-.75.266-.484 0-.734-.266-.25-.281-.25-.687zm6.12 2.61l.048 1.233q1.125-1.406 2.953-1.406 3.125 0 3.156 3.516v6.515h-1.687v-6.515q-.016-1.078-.5-1.578-.47-.516-1.485-.516-.812 0-1.437.438-.61.437-.969 1.156v7.015h-1.672V72.22h1.594zm10.982-2.392v2.391h1.844v1.313h-1.844v6.109q0 .594.235.89.25.297.843.297.297 0 .813-.109v1.36q-.672.187-1.297.187-1.125 0-1.703-.688-.578-.687-.578-1.937v-6.11h-1.797V72.22h1.797v-2.39h1.687zm17.489.422h-4.266V82.08h-1.734V70.251h-4.25v-1.437h10.25v1.437zm4.886 12.016q-2 0-3.266-1.313-1.25-1.328-1.25-3.53v-.313q0-1.47.563-2.61.562-1.156 1.562-1.797 1.016-.656 2.188-.656 1.921 0 2.984 1.266 1.062 1.265 1.062 3.625v.687h-6.671q.03 1.47.843 2.375.828.89 2.078.89.891 0 1.516-.358.625-.375 1.078-.97l1.031.798q-1.234 1.906-3.718 1.906zm-.203-8.844q-1.016 0-1.72.75-.687.735-.843 2.078h4.938v-.125q-.079-1.28-.704-1.984-.609-.719-1.671-.719zm7.586-1.203l.047 1.094q1.078-1.266 2.922-1.266 2.063 0 2.813 1.578.5-.718 1.281-1.14.797-.438 1.86-.438 3.25 0 3.296 3.422v6.61h-1.672v-6.5q0-1.063-.484-1.579-.484-.53-1.625-.53-.938 0-1.563.562-.609.562-.718 1.5v6.546h-1.688v-6.453q0-2.156-2.11-2.156-1.655 0-2.265 1.406v7.203h-1.687V72.22h1.593zm23.086 5.047q0 2.25-1.03 3.625-1.016 1.375-2.782 1.375-1.797 0-2.828-1.14v4.75H168.4V72.22h1.531l.078 1.094q1.032-1.266 2.86-1.266 1.78 0 2.812 1.344 1.031 1.328 1.031 3.719v.156zm-1.671-.203q0-1.656-.72-2.625-.702-.969-1.952-.969-1.532 0-2.297 1.36v4.703q.765 1.359 2.328 1.359 1.203 0 1.922-.953.719-.969.719-2.875zm5.654 5.015h-1.688v-14h1.688v14zm8.777 0q-.14-.296-.234-1.03-1.172 1.218-2.813 1.218-1.453 0-2.39-.828-.922-.828-.922-2.094 0-1.531 1.156-2.375 1.172-.86 3.297-.86h1.64v-.78q0-.891-.53-1.407-.516-.531-1.548-.531-.906 0-1.515.469-.61.453-.61 1.093h-1.703q0-.734.516-1.421.531-.688 1.422-1.079.906-.406 1.984-.406 1.703 0 2.672.86.969.843 1 2.328v4.53q0 1.36.344 2.173v.14h-1.766zm-2.797-1.28q.797 0 1.5-.407.72-.422 1.032-1.078v-2.016h-1.313q-3.11 0-3.11 1.813 0 .797.532 1.25.531.437 1.36.437zm9.148-10.97v2.391h1.844v1.313h-1.844v6.109q0 .594.235.89.25.297.843.297.297 0 .813-.109v1.36q-.672.187-1.297.187-1.125 0-1.703-.688-.578-.687-.578-1.937v-6.11h-1.797V72.22h1.797v-2.39h1.687zm7.891 12.438q-2 0-3.265-1.313-1.25-1.328-1.25-3.53v-.313q0-1.47.562-2.61.563-1.156 1.563-1.797 1.015-.656 2.187-.656 1.922 0 2.985 1.266 1.062 1.265 1.062 3.625v.687h-6.672q.032 1.47.844 2.375.828.89 2.078.89.89 0 1.516-.358.625-.375 1.078-.97l1.031.798q-1.234 1.906-3.719 1.906zm-.203-8.844q-1.015 0-1.718.75-.688.735-.844 2.078h4.937v-.125q-.078-1.28-.703-1.984-.61-.719-1.672-.719z"
      fill="#666"/>
    <path
      d="M54.645 208.176c0-.202.164-.366.365-.366h136.025a.365.365 0 01.366.366v43.458a.365.365 0 01-.366.365H55.01a.365.365 0 01-.365-.365z"
      fill="#ede7f6"
      fill-rule="evenodd"/>
    <path
      d="M92.327 234.497l3.78-10.938h1.923l-4.922 13.266H91.56l-4.922-13.266h1.906l3.782 10.938zm9.041 2.328h-1.687v-9.86h1.687v9.86zm-1.828-12.469q0-.406.25-.687.25-.297.734-.297.5 0 .75.297.266.28.266.687 0 .406-.266.688-.25.265-.75.265-.484 0-.734-.265-.25-.282-.25-.688zm4.074 7.453q0-1.453.563-2.61.578-1.155 1.594-1.78 1.015-.625 2.312-.625 2.016 0 3.25 1.39 1.25 1.39 1.25 3.703v.125q0 1.438-.547 2.578-.547 1.141-1.578 1.782-1.016.64-2.36.64-2 0-3.25-1.39-1.234-1.407-1.234-3.703v-.11zm1.688.203q0 1.641.765 2.641.766.984 2.032.984 1.297 0 2.047-1 .75-1.015.75-2.828 0-1.625-.766-2.625-.766-1.015-2.047-1.015-1.25 0-2.016 1-.765.984-.765 2.843zm11.233 4.813h-1.687v-14h1.687v14zm8.778 0q-.14-.297-.235-1.031-1.171 1.218-2.812 1.218-1.453 0-2.39-.828-.923-.828-.923-2.094 0-1.53 1.157-2.375 1.172-.859 3.297-.859h1.64v-.781q0-.89-.531-1.406-.516-.532-1.547-.532-.906 0-1.516.47-.609.452-.609 1.093h-1.703q0-.734.516-1.422.53-.688 1.421-1.078.907-.406 1.985-.406 1.703 0 2.672.859.968.844 1 2.328v4.531q0 1.36.343 2.172v.14h-1.765zm-2.797-1.281q.797 0 1.5-.407.719-.422 1.031-1.078v-2.015h-1.312q-3.11 0-3.11 1.812 0 .797.532 1.25.53.438 1.359.438zm9.148-10.97v2.391h1.844v1.313h-1.844v6.11q0 .593.234.89.25.297.844.297.297 0 .813-.11v1.36q-.672.187-1.297.187-1.125 0-1.703-.687-.579-.688-.579-1.938v-6.109h-1.796v-1.313h1.796v-2.39h1.688zm5.641 12.25h-1.687v-9.859h1.687v9.86zm-1.828-12.468q0-.406.25-.687.25-.297.734-.297.5 0 .75.297.266.28.266.687 0 .406-.266.688-.25.265-.75.265-.484 0-.734-.265-.25-.282-.25-.688zm4.074 7.453q0-1.453.563-2.61.578-1.155 1.594-1.78 1.015-.625 2.312-.625 2.016 0 3.25 1.39 1.25 1.39 1.25 3.703v.125q0 1.438-.547 2.578-.547 1.141-1.578 1.782-1.016.64-2.36.64-2 0-3.25-1.39-1.234-1.407-1.234-3.703v-.11zm1.688.203q0 1.641.765 2.641.766.984 2.032.984 1.297 0 2.047-1 .75-1.015.75-2.828 0-1.625-.766-2.625-.766-1.015-2.047-1.015-1.25 0-2.016 1-.765.984-.765 2.843zm10.999-5.047l.047 1.235q1.125-1.406 2.953-1.406 3.125 0 3.156 3.515v6.516h-1.687v-6.516q-.016-1.078-.5-1.578-.469-.516-1.485-.516-.812 0-1.437.438-.61.438-.969 1.156v7.016h-1.672v-9.86h1.594z"
      fill="#666"/>
    <path
      d="M382.635 72.571c0-.96.779-1.74 1.74-1.74H625.02a1.74 1.74 0 011.74 1.74v206.914c0 .961-.78 1.74-1.74 1.74H384.375a1.74 1.74 0 01-1.74-1.74z"
      fill="#eceff1"
      fill-rule="evenodd"/>
    <path
      d="M401.62 92.355q-2.25-.657-3.281-1.594-1.031-.938-1.031-2.328 0-1.563 1.25-2.594 1.265-1.031 3.265-1.031 1.36 0 2.438.531t1.656 1.469q.594.922.594 2.031h-1.766q0-1.203-.766-1.89-.765-.688-2.156-.688-1.297 0-2.015.563-.72.562-.72 1.578 0 .812.688 1.375.688.562 2.328 1.03 1.657.454 2.594 1.016.938.563 1.375 1.313.453.75.453 1.75 0 1.61-1.25 2.594-1.25.968-3.359.968-1.375 0-2.563-.515-1.171-.531-1.812-1.438-.64-.922-.64-2.078h1.75q0 1.203.89 1.906.89.688 2.375.688 1.375 0 2.11-.563.75-.562.75-1.53 0-.985-.688-1.516-.688-.532-2.469-1.047zm10.974 6.093q-2 0-3.265-1.312-1.25-1.328-1.25-3.531v-.313q0-1.469.562-2.61.563-1.155 1.563-1.796 1.015-.656 2.187-.656 1.922 0 2.985 1.265 1.062 1.266 1.062 3.625v.688h-6.672q.032 1.469.844 2.375.828.89 2.078.89.89 0 1.516-.359.625-.375 1.078-.969l1.031.797q-1.234 1.906-3.719 1.906zm-.203-8.843q-1.015 0-1.718.75-.688.734-.844 2.078h4.937v-.125q-.078-1.281-.703-1.985-.61-.718-1.672-.718zm9.962 7.468q.89 0 1.563-.546.687-.547.75-1.375h1.593q-.046.843-.578 1.609-.53.766-1.437 1.234-.89.453-1.89.453-2.016 0-3.204-1.343-1.187-1.344-1.187-3.688v-.281q0-1.438.515-2.547.531-1.125 1.516-1.734 1-.625 2.344-.625 1.656 0 2.75 1 1.109.984 1.171 2.562h-1.593q-.063-.953-.719-1.562-.656-.625-1.61-.625-1.28 0-2 .922-.703.921-.703 2.671v.329q0 1.703.704 2.625.703.921 2.015.921zm11.89.22q-.984 1.155-2.89 1.155-1.578 0-2.406-.921-.813-.922-.828-2.704v-6.421h1.687v6.375q0 2.234 1.828 2.234 1.922 0 2.563-1.438v-7.171h1.687v9.859h-1.61l-.03-.969zm8.973-7.376q-.39-.062-.844-.062-1.656 0-2.25 1.406v7h-1.672v-9.86h1.64l.016 1.141q.828-1.312 2.36-1.312.484 0 .75.125v1.562zm3.375 8.344h-1.687v-9.86h1.687v9.86zm-1.828-12.469q0-.406.25-.687.25-.297.734-.297.5 0 .75.297.266.281.266.687t-.266.688q-.25.265-.75.265-.484 0-.734-.265-.25-.282-.25-.688zm6.809.219v2.39h1.843v1.313h-1.843v6.11q0 .593.234.89.25.297.844.297.297 0 .812-.11v1.36q-.672.188-1.297.188-1.125 0-1.703-.688-.578-.688-.578-1.938v-6.109h-1.797v-1.312h1.797V86.01h1.688zm7.031 9.781l2.297-7.39h1.797l-3.953 11.375q-.922 2.468-2.922 2.468l-.328-.03-.625-.126v-1.36l.453.032q.86 0 1.328-.344.485-.344.797-1.265l.375-1-3.515-9.75h1.843l2.453 7.39zm20.243-1.734q-.25 2.094-1.563 3.25-1.296 1.14-3.468 1.14-2.344 0-3.766-1.687-1.422-1.688-1.422-4.516V90.98q0-1.86.656-3.25.672-1.407 1.875-2.157 1.22-.765 2.813-.765 2.11 0 3.39 1.187 1.282 1.172 1.485 3.266h-1.766q-.218-1.578-.984-2.281-.766-.719-2.125-.719-1.672 0-2.625 1.234-.953 1.235-.953 3.532v1.28q0 2.157.89 3.438.907 1.266 2.532 1.266 1.453 0 2.234-.656.781-.657 1.031-2.297h1.766zm1.674-.813q0-1.453.563-2.609.578-1.156 1.593-1.781 1.016-.625 2.313-.625 2.015 0 3.25 1.39 1.25 1.391 1.25 3.703v.126q0 1.437-.547 2.578-.547 1.14-1.578 1.78-1.016.641-2.36.641-2 0-3.25-1.39-1.234-1.406-1.234-3.703v-.11zm1.688.203q0 1.641.765 2.641.766.984 2.031.984 1.297 0 2.047-1 .75-1.015.75-2.828 0-1.625-.765-2.625-.766-1.015-2.047-1.015-1.25 0-2.016 1-.765.984-.765 2.843zm10.983-5.046l.047 1.093q1.078-1.265 2.922-1.265 2.062 0 2.812 1.578.5-.719 1.282-1.14.797-.438 1.86-.438 3.25 0 3.296 3.422v6.609h-1.672v-6.5q0-1.063-.484-1.578-.485-.531-1.625-.531-.938 0-1.563.562-.61.563-.719 1.5v6.547h-1.687v-6.453q0-2.156-2.11-2.156-1.656 0-2.265 1.406v7.203h-1.688v-9.86h1.594zm16.352 0l.047 1.093q1.078-1.265 2.922-1.265 2.062 0 2.812 1.578.5-.719 1.281-1.14.797-.438 1.86-.438 3.25 0 3.297 3.422v6.609h-1.672v-6.5q0-1.063-.485-1.578-.484-.531-1.625-.531-.937 0-1.562.562-.61.563-.719 1.5v6.547h-1.687v-6.453q0-2.156-2.11-2.156-1.656 0-2.265 1.406v7.203h-1.688v-9.86h1.594zm20.851 9.859q-.14-.297-.234-1.031-1.172 1.218-2.813 1.218-1.453 0-2.39-.828-.922-.828-.922-2.093 0-1.532 1.156-2.375 1.172-.86 3.297-.86h1.64v-.781q0-.89-.53-1.406-.516-.532-1.547-.532-.907 0-1.516.47-.61.452-.61 1.093h-1.703q0-.734.516-1.422.531-.687 1.422-1.078.906-.406 1.984-.406 1.703 0 2.672.86.969.843 1 2.327v4.531q0 1.36.344 2.172v.141h-1.766zm-2.797-1.281q.797 0 1.5-.407.72-.421 1.032-1.078V93.48h-1.313q-3.11 0-3.11 1.812 0 .797.532 1.25.531.438 1.36.438zm8.46-8.578l.048 1.234q1.125-1.406 2.953-1.406 3.125 0 3.156 3.515v6.516h-1.687v-6.516q-.016-1.078-.5-1.578-.47-.515-1.485-.515-.812 0-1.437.437-.61.438-.969 1.156v7.016h-1.672v-9.86h1.594zm8.28 4.843q0-2.265 1.077-3.64 1.078-1.375 2.813-1.375 1.734 0 2.75 1.172V84.26h1.687v14h-1.547l-.093-1.063q-1 1.25-2.813 1.25-1.703 0-2.797-1.406-1.078-1.406-1.078-3.656v-.14zm1.687.203q0 1.672.687 2.626.703.937 1.922.937 1.61 0 2.344-1.438v-4.53q-.766-1.391-2.328-1.391-1.235 0-1.938.953-.687.953-.687 2.843zm23.89.61q-.25 2.094-1.563 3.25-1.297 1.14-3.469 1.14-2.343 0-3.765-1.687-1.422-1.688-1.422-4.516V90.98q0-1.86.656-3.25.672-1.407 1.875-2.157 1.219-.765 2.813-.765 2.109 0 3.39 1.187 1.281 1.172 1.485 3.266h-1.766q-.219-1.578-.984-2.281-.766-.719-2.125-.719-1.672 0-2.625 1.234-.954 1.235-.954 3.532v1.28q0 2.157.891 3.438.906 1.266 2.531 1.266 1.453 0 2.235-.656.78-.657 1.03-2.297h1.767zm6.205 4.39q-2 0-3.266-1.312-1.25-1.328-1.25-3.531v-.313q0-1.469.563-2.61.562-1.155 1.562-1.796 1.016-.656 2.188-.656 1.922 0 2.984 1.265 1.063 1.266 1.063 3.625v.688h-6.672q.031 1.469.844 2.375.828.89 2.078.89.89 0 1.515-.359.625-.375 1.078-.969l1.032.797q-1.235 1.906-3.719 1.906zm-.203-8.843q-1.016 0-1.719.75-.687.734-.844 2.078h4.938v-.125q-.078-1.281-.703-1.985-.61-.718-1.672-.718zm7.602-1.203l.047 1.234q1.125-1.406 2.953-1.406 3.125 0 3.157 3.515v6.516h-1.688v-6.516q-.015-1.078-.5-1.578-.469-.515-1.484-.515-.813 0-1.438.437-.61.438-.968 1.156v7.016h-1.672v-9.86h1.593zM594.5 86.01v2.39h1.843v1.313H594.5v6.11q0 .593.234.89.25.297.844.297.297 0 .812-.11v1.36q-.672.188-1.297.188-1.125 0-1.703-.688-.578-.688-.578-1.938v-6.109h-1.797v-1.312h1.797V86.01h1.688zm7.89 12.438q-2 0-3.265-1.313-1.25-1.328-1.25-3.531v-.313q0-1.469.563-2.61.562-1.155 1.562-1.796 1.016-.656 2.188-.656 1.922 0 2.984 1.265 1.063 1.266 1.063 3.625v.688h-6.672q.03 1.469.843 2.375.829.89 2.079.89.89 0 1.515-.359.625-.375 1.078-.969l1.032.797q-1.235 1.906-3.72 1.906zm-.202-8.844q-1.016 0-1.72.75-.687.734-.843 2.078h4.938v-.125q-.078-1.281-.703-1.985-.61-.718-1.672-.718zm10.774.312q-.39-.062-.844-.062-1.656 0-2.25 1.406v7h-1.672v-9.86h1.641l.016 1.141q.828-1.312 2.36-1.312.483 0 .75.125v1.562z"
      fill="#666"/>
    <path
      d="M409.648 112.889c0-.713.578-1.291 1.29-1.291h187.529a1.291 1.291 0 011.29 1.291v153.544c0 .713-.577 1.29-1.29 1.29H410.939a1.291 1.291 0 01-1.291-1.29z"
      fill="#fff3e0"
      fill-rule="evenodd"/>
    <path d="M418.304 111.598H591.09v42.016H418.304z" fill="none"/>
    <path
      d="M429.422 132.612q-2.25-.657-3.28-1.594-1.032-.938-1.032-2.328 0-1.563 1.25-2.594 1.266-1.031 3.266-1.031 1.359 0 2.437.53 1.078.532 1.656 1.47.594.922.594 2.03h-1.766q0-1.202-.765-1.89-.766-.687-2.156-.687-1.297 0-2.016.562-.719.563-.719 1.578 0 .813.688 1.375.687.563 2.328 1.032 1.656.453 2.594 1.015.937.563 1.375 1.313.453.75.453 1.75 0 1.61-1.25 2.594-1.25.968-3.36.968-1.375 0-2.562-.515-1.172-.532-1.813-1.438-.64-.922-.64-2.078h1.75q0 1.203.89 1.906.89.688 2.375.688 1.375 0 2.11-.563.75-.562.75-1.531 0-.984-.688-1.516-.687-.53-2.469-1.046zm6.443.89q0-1.453.563-2.61.578-1.155 1.594-1.78 1.015-.625 2.312-.625 2.016 0 3.25 1.39 1.25 1.39 1.25 3.703v.125q0 1.438-.547 2.578-.547 1.141-1.578 1.782-1.015.64-2.36.64-2 0-3.25-1.39-1.234-1.407-1.234-3.703v-.11zm1.688.203q0 1.64.766 2.64.765.985 2.03.985 1.298 0 2.048-1 .75-1.015.75-2.828 0-1.625-.766-2.625-.766-1.015-2.047-1.015-1.25 0-2.015 1-.766.984-.766 2.843zm15.484 3.844q-.985 1.156-2.891 1.156-1.578 0-2.406-.922-.813-.921-.828-2.703v-6.422h1.687v6.375q0 2.235 1.828 2.235 1.922 0 2.563-1.438v-7.172h1.687v9.86h-1.61l-.03-.969zm8.972-7.375q-.39-.062-.844-.062-1.656 0-2.25 1.406v7h-1.672v-9.86h1.64l.016 1.141q.828-1.312 2.36-1.312.484 0 .75.125v1.562zm5.327 7.156q.89 0 1.562-.547.688-.546.75-1.375h1.594q-.047.844-.578 1.61-.531.765-1.437 1.234-.891.453-1.891.453-2.016 0-3.203-1.343-1.188-1.344-1.188-3.688v-.281q0-1.438.516-2.547.531-1.125 1.516-1.734 1-.625 2.343-.625 1.657 0 2.75 1 1.11.984 1.172 2.562h-1.594q-.062-.953-.718-1.562-.657-.625-1.61-.625-1.281 0-2 .921-.703.922-.703 2.672v.328q0 1.704.703 2.625.703.922 2.016.922zm9.89 1.375q-2 0-3.265-1.312-1.25-1.328-1.25-3.531v-.313q0-1.469.562-2.61.563-1.156 1.563-1.796 1.015-.656 2.187-.656 1.922 0 2.985 1.265 1.062 1.266 1.062 3.625v.688h-6.672q.031 1.468.844 2.375.828.89 2.078.89.89 0 1.516-.36.625-.374 1.078-.968l1.031.797q-1.234 1.906-3.719 1.906zm-.203-8.843q-1.015 0-1.719.75-.687.734-.843 2.078h4.937v-.125q-.078-1.282-.703-1.985-.61-.718-1.672-.718zm6.04 7.765q0-.437.25-.719.266-.296.781-.296.532 0 .797.296.266.282.266.72 0 .421-.266.702-.265.282-.797.282-.515 0-.78-.282-.25-.281-.25-.703zm0-8q0-.437.25-.719.266-.296.781-.296.532 0 .797.296.266.282.266.72 0 .421-.266.702-.265.282-.797.282-.515 0-.78-.282-.25-.281-.25-.703zm19.153 7.156q-.672.954-1.875 1.438-1.203.484-2.813.484-1.625 0-2.89-.765-1.25-.766-1.938-2.157-.687-1.406-.703-3.265v-1.156q0-2.985 1.39-4.641 1.407-1.656 3.938-1.656 2.078 0 3.344 1.062 1.265 1.063 1.547 3.016h-1.75q-.485-2.625-3.125-2.625-1.766 0-2.672 1.234-.906 1.235-.906 3.563v1.093q0 2.235 1.015 3.547 1.016 1.313 2.766 1.313.984 0 1.719-.219.734-.219 1.218-.734v-2.985h-3.078v-1.422h4.813v4.875zm8.739 1.735q-.141-.297-.235-1.031-1.172 1.218-2.812 1.218-1.453 0-2.39-.828-.923-.828-.923-2.094 0-1.53 1.157-2.375 1.171-.859 3.296-.859h1.641v-.781q0-.89-.531-1.406-.516-.532-1.547-.532-.906 0-1.516.469-.61.453-.61 1.094h-1.702q0-.735.515-1.422.532-.688 1.422-1.078.907-.406 1.985-.406 1.703 0 2.672.859.968.844 1 2.328v4.531q0 1.36.343 2.172v.14h-1.765zm-2.797-1.281q.797 0 1.5-.407.719-.422 1.031-1.078v-2.015h-1.312q-3.11 0-3.11 1.812 0 .797.531 1.25.532.438 1.36.438zm9.148-10.97v2.391h1.844v1.313h-1.844v6.11q0 .593.234.89.25.297.844.297.297 0 .812-.11v1.36q-.671.187-1.296.187-1.125 0-1.704-.687-.578-.688-.578-1.938v-6.11h-1.797v-1.312h1.797v-2.39h1.688zm7.89 12.438q-2 0-3.265-1.312-1.25-1.328-1.25-3.531v-.313q0-1.469.563-2.61.562-1.156 1.562-1.796 1.016-.656 2.188-.656 1.922 0 2.984 1.265 1.063 1.266 1.063 3.625v.688h-6.672q.031 1.468.844 2.375.828.89 2.078.89.89 0 1.515-.36.625-.374 1.078-.968l1.032.797q-1.235 1.906-3.72 1.906zm-.202-8.843q-1.016 0-1.719.75-.687.734-.844 2.078h4.938v-.125q-.078-1.282-.703-1.985-.61-.718-1.672-.718zm8.759 4.093l-1.063 1.094v3.469h-1.687v-14h1.687v8.469l.906-1.079 3.063-3.25h2.047l-3.828 4.125 4.28 5.735h-1.984l-3.421-4.563zm10.601 4.75q-2 0-3.266-1.312-1.25-1.328-1.25-3.531v-.313q0-1.469.563-2.61.562-1.156 1.562-1.796 1.016-.656 2.188-.656 1.922 0 2.984 1.265 1.063 1.266 1.063 3.625v.688h-6.672q.031 1.468.844 2.375.828.89 2.078.89.89 0 1.515-.36.625-.374 1.079-.968l1.03.797q-1.234 1.906-3.718 1.906zm-.203-8.843q-1.016 0-1.719.75-.687.734-.844 2.078h4.938v-.125q-.078-1.282-.703-1.985-.61-.718-1.672-.718zm10.087 8.843q-2 0-3.266-1.312-1.25-1.328-1.25-3.531v-.313q0-1.469.563-2.61.562-1.156 1.562-1.796 1.016-.656 2.188-.656 1.922 0 2.984 1.265 1.063 1.266 1.063 3.625v.688h-6.672q.031 1.468.843 2.375.829.89 2.079.89.89 0 1.515-.36.625-.374 1.078-.968l1.032.797q-1.235 1.906-3.72 1.906zm-.203-8.843q-1.016 0-1.719.75-.688.734-.844 2.078h4.938v-.125q-.078-1.282-.703-1.985-.61-.718-1.672-.718zm14.321 3.843q0 2.25-1.031 3.625-1.016 1.375-2.781 1.375-1.797 0-2.829-1.14v4.75h-1.671v-13.657h1.53l.079 1.094q1.031-1.265 2.86-1.265 1.78 0 2.812 1.343 1.031 1.328 1.031 3.719v.156zm-1.672-.203q0-1.656-.719-2.625-.703-.969-1.953-.969-1.531 0-2.297 1.36v4.703q.766 1.36 2.329 1.36 1.203 0 1.921-.954.72-.969.72-2.875zm7.905 5.203q-2 0-3.266-1.312-1.25-1.328-1.25-3.531v-.313q0-1.469.562-2.61.563-1.156 1.563-1.796 1.016-.656 2.187-.656 1.922 0 2.985 1.265 1.062 1.266 1.062 3.625v.688h-6.672q.032 1.468.844 2.375.828.89 2.078.89.89 0 1.516-.36.625-.374 1.078-.968l1.031.797q-1.234 1.906-3.718 1.906zm-.204-8.843q-1.015 0-1.718.75-.688.734-.844 2.078h4.937v-.125q-.078-1.282-.703-1.985-.61-.718-1.672-.718zm10.775.312q-.39-.062-.844-.062-1.656 0-2.25 1.406v7h-1.672v-9.86h1.64l.016 1.141q.829-1.312 2.36-1.312.484 0 .75.125v1.562z"
      fill="#666"/>
    <path
      d="M436.32 152.19c0-.203.163-.366.365-.366H572.71a.365.365 0 01.366.365v43.458a.365.365 0 01-.366.366H436.685a.365.365 0 01-.365-.366z"
      fill="#fbe9e7"
      fill-rule="evenodd"/>
    <path
      d="M483.086 174.979h-5.578v5.86h-1.735v-13.267h8.203v1.438h-6.468v4.547h5.578v1.422zm4.562 5.86h-1.688v-9.86h1.688v9.86zm-1.829-12.47q0-.406.25-.687.25-.297.735-.297.5 0 .75.297.265.281.265.687 0 .407-.265.688-.25.265-.75.265-.485 0-.735-.265-.25-.281-.25-.688zm6.122 2.61l.047 1.234q1.125-1.406 2.953-1.406 3.125 0 3.156 3.515v6.516h-1.688v-6.516q-.015-1.078-.5-1.578-.468-.515-1.484-.515-.812 0-1.437.437-.61.438-.97 1.156v7.016h-1.671v-9.86h1.594zm8.278 4.843q0-2.265 1.078-3.64t2.812-1.375q1.735 0 2.75 1.172v-5.14h1.688v14H507l-.094-1.063q-1 1.25-2.812 1.25-1.703 0-2.797-1.407-1.078-1.406-1.078-3.656v-.14zm1.687.204q0 1.671.688 2.625.703.937 1.922.937 1.609 0 2.343-1.437v-4.532q-.765-1.39-2.328-1.39-1.234 0-1.937.953-.688.953-.688 2.844zm11.084 4.812h-1.687v-9.86h1.687v9.86zm-1.828-12.469q0-.406.25-.687.25-.297.734-.297.5 0 .75.297.266.281.266.687 0 .407-.266.688-.25.265-.75.265-.484 0-.734-.265-.25-.281-.25-.688zm6.121 2.61l.047 1.234q1.125-1.406 2.953-1.406 3.125 0 3.157 3.515v6.516h-1.688v-6.516q-.016-1.078-.5-1.578-.469-.515-1.484-.515-.813 0-1.438.437-.61.438-.969 1.156v7.016h-1.671v-9.86h1.593zm8.294 4.843q0-2.296 1.062-3.656 1.063-1.36 2.829-1.36 1.796 0 2.812 1.266l.078-1.093h1.547v9.625q0 1.906-1.14 3-1.126 1.11-3.047 1.11-1.063 0-2.094-.454-1.016-.453-1.547-1.25l.875-1q1.078 1.328 2.656 1.328 1.219 0 1.906-.687.688-.688.688-1.954v-.843q-1 1.172-2.75 1.172-1.734 0-2.813-1.391-1.062-1.406-1.062-3.813zm1.687.204q0 1.656.688 2.609.687.953 1.922.953 1.594 0 2.328-1.453v-4.5q-.766-1.406-2.313-1.406-1.234 0-1.937.953-.688.953-.688 2.844z"
      fill="#666"/>
    <path
      d="M436.32 207.87c0-.203.163-.366.365-.366H572.71a.366.366 0 01.366.365v43.458a.365.365 0 01-.366.366H436.685a.365.365 0 01-.365-.366z"
      fill="#fbe9e7"
      fill-rule="evenodd"/>
    <path
      d="M483.086 230.659h-5.578v5.86h-1.735v-13.267h8.203v1.438h-6.468v4.547h5.578v1.422zm4.562 5.86h-1.688v-9.86h1.688v9.86zm-1.829-12.47q0-.406.25-.687.25-.297.735-.297.5 0 .75.297.265.281.265.687 0 .407-.265.688-.25.265-.75.265-.485 0-.735-.265-.25-.281-.25-.688zm6.122 2.61l.047 1.234q1.125-1.406 2.953-1.406 3.125 0 3.156 3.515v6.516h-1.688v-6.516q-.015-1.078-.5-1.578-.468-.515-1.484-.515-.812 0-1.437.437-.61.438-.97 1.156v7.016h-1.671v-9.86h1.594zm8.278 4.843q0-2.265 1.078-3.64t2.812-1.375q1.735 0 2.75 1.172v-5.14h1.688v14H507l-.094-1.063q-1 1.25-2.812 1.25-1.703 0-2.797-1.407-1.078-1.406-1.078-3.656v-.14zm1.687.204q0 1.671.688 2.625.703.937 1.922.937 1.609 0 2.343-1.437v-4.532q-.765-1.39-2.328-1.39-1.234 0-1.937.953-.688.953-.688 2.844zm11.084 4.812h-1.687v-9.86h1.687v9.86zm-1.828-12.469q0-.406.25-.687.25-.297.734-.297.5 0 .75.297.266.281.266.687 0 .407-.266.688-.25.265-.75.265-.484 0-.734-.265-.25-.281-.25-.688zm6.121 2.61l.047 1.234q1.125-1.406 2.953-1.406 3.125 0 3.157 3.515v6.516h-1.688v-6.516q-.016-1.078-.5-1.578-.469-.515-1.484-.515-.813 0-1.438.437-.61.438-.969 1.156v7.016h-1.671v-9.86h1.593zm8.294 4.843q0-2.296 1.062-3.656 1.063-1.36 2.829-1.36 1.796 0 2.812 1.266l.078-1.093h1.547v9.625q0 1.906-1.14 3-1.126 1.11-3.047 1.11-1.063 0-2.094-.454-1.016-.453-1.547-1.25l.875-1q1.078 1.328 2.656 1.328 1.219 0 1.906-.687.688-.688.688-1.954v-.843q-1 1.172-2.75 1.172-1.734 0-2.813-1.391-1.062-1.406-1.062-3.813zm1.687.204q0 1.656.688 2.609.687.953 1.922.953 1.594 0 2.328-1.453v-4.5q-.766-1.406-2.313-1.406-1.234 0-1.937.953-.688.953-.688 2.844z"
      fill="#666"/>
    <path d="M191.4 173.905h122.46v.063h122.454" fill="none"/>
    <path d="M191.4 173.905h122.46v.063h115.6" stroke="#666" stroke-linecap="butt"
      stroke-linejoin="round"
      stroke-width="2"/>
    <path d="M429.46 173.968l-2.25 2.249 6.18-2.25-6.18-2.248z" fill="#666" fill-rule="evenodd"
      stroke="#666"
      stroke-linecap="butt" stroke-width="2"/>
    <path d="M191.4 229.905h122.46v-.315h122.454" fill="none"/>
    <path d="M191.4 229.905h122.46v-.315h115.6" stroke="#666" stroke-linecap="butt"
      stroke-linejoin="round"
      stroke-width="2"/>
    <path d="M429.46 229.59l-2.25 2.25 6.18-2.25-6.18-2.25z" fill="#666" fill-rule="evenodd"
      stroke="#666"
      stroke-linecap="butt" stroke-width="2"/>
    <path
      d="M46.356 281.988c0-.4.324-.724.724-.724h154.679a.723.723 0 01.723.724v86.018c0 .4-.324.723-.723.723H47.079a.723.723 0 01-.723-.723z"
      fill="#fce4ec"
      fill-rule="evenodd"/>
    <path
      d="M76.572 298.901q0-2.297 1.063-3.656 1.062-1.36 2.828-1.36 1.797 0 2.812 1.266l.078-1.094H84.9v9.625q0 1.907-1.14 3-1.125 1.11-3.047 1.11-1.063 0-2.094-.453-1.016-.454-1.547-1.25l.875-1q1.078 1.328 2.656 1.328 1.22 0 1.907-.688.687-.687.687-1.953v-.844q-1 1.172-2.75 1.172-1.734 0-2.812-1.39-1.063-1.407-1.063-3.813zm1.688.203q0 1.656.687 2.61.688.953 1.922.953 1.594 0 2.328-1.453v-4.5q-.765-1.407-2.312-1.407-1.235 0-1.938.953-.687.954-.687 2.844zm15.263 4.813q-.14-.297-.234-1.032-1.172 1.22-2.812 1.22-1.454 0-2.391-.829-.922-.828-.922-2.094 0-1.53 1.156-2.375 1.172-.859 3.297-.859h1.64v-.781q0-.89-.53-1.407-.516-.53-1.547-.53-.907 0-1.516.468-.61.453-.61 1.094h-1.702q0-.735.515-1.422.531-.688 1.422-1.078.906-.407 1.984-.407 1.704 0 2.672.86.969.844 1 2.328v4.531q0 1.36.344 2.172v.14h-1.766zm-2.796-1.282q.796 0 1.5-.406.718-.422 1.03-1.078v-2.016h-1.312q-3.11 0-3.11 1.813 0 .797.532 1.25.531.437 1.36.437zm9.148-10.968v2.39h1.843v1.313h-1.843v6.11q0 .593.234.89.25.297.844.297.297 0 .812-.11v1.36q-.672.187-1.297.187-1.125 0-1.703-.687-.578-.688-.578-1.938v-6.11H96.39v-1.312h1.797v-2.39h1.688zm7.89 12.437q-2 0-3.265-1.312-1.25-1.328-1.25-3.532v-.312q0-1.469.563-2.61.562-1.156 1.562-1.796 1.016-.657 2.188-.657 1.921 0 2.984 1.266 1.062 1.266 1.062 3.625v.688h-6.671q.03 1.468.843 2.375.828.89 2.078.89.891 0 1.516-.36.625-.374 1.078-.968l1.031.797q-1.234 1.906-3.718 1.906zm-.202-8.844q-1.016 0-1.72.75-.687.735-.843 2.079h4.938v-.125q-.079-1.282-.704-1.985-.609-.719-1.671-.719zm8.758 4.094l-1.062 1.094v3.469h-1.688v-14h1.688v8.468l.906-1.078 3.063-3.25h2.046l-3.828 4.125 4.282 5.735h-1.985l-3.422-4.563zm10.602 4.75q-2 0-3.266-1.312-1.25-1.328-1.25-3.532v-.312q0-1.469.563-2.61.562-1.156 1.562-1.796 1.016-.657 2.188-.657 1.922 0 2.984 1.266 1.063 1.266 1.063 3.625v.688h-6.672q.03 1.468.843 2.375.829.89 2.079.89.89 0 1.515-.36.625-.374 1.078-.968l1.032.797q-1.235 1.906-3.72 1.906zm-.203-8.844q-1.016 0-1.72.75-.687.735-.843 2.079h4.938v-.125q-.078-1.282-.703-1.985-.61-.719-1.672-.719zm10.087 8.844q-2 0-3.266-1.312-1.25-1.328-1.25-3.532v-.312q0-1.469.562-2.61.563-1.156 1.563-1.796 1.016-.657 2.187-.657 1.922 0 2.985 1.266 1.062 1.266 1.062 3.625v.688h-6.672q.032 1.468.844 2.375.828.89 2.078.89.891 0 1.516-.36.625-.374 1.078-.968l1.031.797q-1.234 1.906-3.718 1.906zm-.204-8.844q-1.015 0-1.718.75-.688.735-.844 2.079h4.937v-.125q-.078-1.282-.703-1.985-.609-.719-1.672-.719zm14.322 3.844q0 2.25-1.031 3.625-1.016 1.375-2.782 1.375-1.797 0-2.828-1.14v4.75h-1.672v-13.657h1.532l.078 1.094q1.03-1.266 2.859-1.266 1.781 0 2.813 1.344 1.03 1.328 1.03 3.719v.156zm-1.672-.203q0-1.656-.719-2.625-.703-.969-1.953-.969-1.531 0-2.297 1.36v4.703q.766 1.36 2.328 1.36 1.203 0 1.922-.954.719-.969.719-2.875zm7.904 5.203q-2 0-3.265-1.312-1.25-1.328-1.25-3.532v-.312q0-1.469.562-2.61.563-1.156 1.563-1.796 1.015-.657 2.187-.657 1.922 0 2.984 1.266 1.063 1.266 1.063 3.625v.688h-6.672q.031 1.468.844 2.375.828.89 2.078.89.89 0 1.516-.36.625-.374 1.078-.968l1.031.797q-1.234 1.906-3.719 1.906zm-.203-8.844q-1.016 0-1.719.75-.687.735-.843 2.079h4.937v-.125q-.078-1.282-.703-1.985-.61-.719-1.672-.719zm10.775.313q-.391-.063-.844-.063-1.656 0-2.25 1.407v7h-1.672v-9.86h1.64l.016 1.141q.828-1.313 2.36-1.313.484 0 .75.125v1.563zm5.047 3.39h-4.438v-1.374h4.438v1.375zM72.72 327.307q0-.687-.516-1.062t-1.797-.64q-1.281-.282-2.031-.657-.75-.39-1.11-.922-.359-.531-.359-1.266 0-1.203 1.016-2.03 1.031-.845 2.625-.845 1.672 0 2.719.86 1.046.86 1.046 2.219h-1.687q0-.704-.594-1.204t-1.484-.5q-.922 0-1.438.407-.515.39-.515 1.047 0 .609.484.921.484.313 1.734.594 1.266.281 2.047.672.782.39 1.157.938.39.546.39 1.343 0 1.328-1.062 2.125-1.047.797-2.735.797-1.187 0-2.109-.422-.906-.422-1.422-1.172-.516-.75-.516-1.625h1.688q.047.844.672 1.344.64.5 1.687.5.953 0 1.532-.39.578-.391.578-1.032zm7.963 2.797q-2 0-3.266-1.312-1.25-1.328-1.25-3.532v-.312q0-1.469.563-2.61.562-1.156 1.562-1.796 1.016-.657 2.188-.657 1.922 0 2.984 1.266 1.063 1.266 1.063 3.625v.688h-6.672q.031 1.468.844 2.375.828.89 2.078.89.89 0 1.515-.36.625-.374 1.079-.968l1.03.797q-1.234 1.906-3.718 1.906zm-.203-8.844q-1.016 0-1.719.75-.687.735-.844 2.079h4.938v-.125q-.078-1.282-.703-1.985-.61-.719-1.672-.719zm9.962 7.47q.89 0 1.562-.548.688-.547.75-1.375h1.594q-.047.844-.578 1.61-.531.765-1.437 1.234-.891.453-1.891.453-2.016 0-3.203-1.344-1.188-1.343-1.188-3.687v-.281q0-1.438.516-2.547.531-1.125 1.516-1.735 1-.625 2.343-.625 1.657 0 2.75 1 1.11.985 1.172 2.563h-1.594q-.062-.953-.718-1.563-.657-.625-1.61-.625-1.281 0-2 .922-.703.922-.703 2.672v.328q0 1.703.703 2.625.703.922 2.016.922zm11.89.218q-.984 1.156-2.89 1.156-1.578 0-2.407-.922-.812-.922-.828-2.703v-6.422h1.688v6.375q0 2.235 1.828 2.235 1.922 0 2.562-1.438v-7.172h1.688v9.86h-1.61l-.03-.969zm8.972-7.375q-.39-.063-.843-.063-1.657 0-2.25 1.407v7h-1.672v-9.86h1.64l.016 1.141q.828-1.313 2.36-1.313.484 0 .75.125v1.563zm3.376 8.344h-1.688v-9.86h1.688v9.86zm-1.828-12.469q0-.406.25-.688.25-.296.734-.296.5 0 .75.296.266.282.266.688 0 .406-.266.687-.25.266-.75.266-.484 0-.734-.266-.25-.28-.25-.687zm6.808.219v2.39h1.844v1.313h-1.844v6.11q0 .593.235.89.25.297.843.297.297 0 .813-.11v1.36q-.672.187-1.297.187-1.125 0-1.703-.687-.578-.688-.578-1.938v-6.11h-1.797v-1.312h1.797v-2.39h1.687zm7.032 9.781l2.297-7.39h1.797l-3.953 11.374q-.922 2.47-2.922 2.47l-.328-.032-.625-.125v-1.36l.453.032q.86 0 1.328-.344.484-.344.797-1.266l.375-1-3.516-9.75h1.844l2.453 7.391zm9.443 1.281q.89 0 1.563-.547.687-.547.75-1.375h1.593q-.047.844-.578 1.61-.531.765-1.437 1.234-.89.453-1.89.453-2.017 0-3.204-1.344-1.188-1.343-1.188-3.687v-.281q0-1.438.516-2.547.531-1.125 1.516-1.735 1-.625 2.343-.625 1.657 0 2.75 1 1.11.985 1.172 2.563h-1.593q-.063-.953-.72-1.563-.655-.625-1.609-.625-1.28 0-2 .922-.703.922-.703 2.672v.328q0 1.703.703 2.625.704.922 2.016.922zm9.89 1.375q-2 0-3.265-1.312-1.25-1.328-1.25-3.532v-.312q0-1.469.562-2.61.563-1.156 1.563-1.796 1.015-.657 2.187-.657 1.922 0 2.985 1.266 1.062 1.266 1.062 3.625v.688h-6.672q.032 1.468.844 2.375.828.89 2.078.89.89 0 1.516-.36.625-.374 1.078-.968l1.031.797q-1.234 1.906-3.719 1.906zm-.203-8.844q-1.015 0-1.718.75-.688.735-.844 2.079h4.937v-.125q-.078-1.282-.703-1.985-.61-.719-1.672-.719zm7.603-1.203l.047 1.235q1.125-1.407 2.953-1.407 3.125 0 3.156 3.516v6.516h-1.687V323.4q-.016-1.078-.5-1.578-.47-.516-1.485-.516-.812 0-1.437.438-.61.437-.969 1.156v7.016h-1.672v-9.86h1.594zm10.981-2.39v2.39h1.844v1.313h-1.844v6.11q0 .593.234.89.25.297.844.297.297 0 .813-.11v1.36q-.672.187-1.297.187-1.125 0-1.703-.687-.578-.688-.578-1.938v-6.11h-1.797v-1.312h1.797v-2.39h1.687zm7.891 12.437q-2 0-3.265-1.312-1.25-1.328-1.25-3.532v-.312q0-1.469.562-2.61.563-1.156 1.563-1.796 1.015-.657 2.187-.657 1.922 0 2.984 1.266 1.063 1.266 1.063 3.625v.688h-6.672q.031 1.468.844 2.375.828.89 2.078.89.89 0 1.516-.36.625-.374 1.078-.968l1.031.797q-1.234 1.906-3.719 1.906zm-.203-8.844q-1.016 0-1.719.75-.687.735-.843 2.079h4.937v-.125q-.078-1.282-.703-1.985-.61-.719-1.672-.719zm10.775.313q-.391-.063-.844-.063-1.656 0-2.25 1.407v7h-1.672v-9.86h1.64l.016 1.141q.828-1.313 2.36-1.313.484 0 .75.125v1.563zM90.246 354.73q.89 0 1.563-.548.687-.547.75-1.375h1.593q-.047.844-.578 1.61-.531.765-1.437 1.234-.89.453-1.89.453-2.017 0-3.204-1.344-1.188-1.343-1.188-3.687v-.281q0-1.438.516-2.547.531-1.125 1.516-1.735 1-.625 2.343-.625 1.657 0 2.75 1 1.11.985 1.172 2.563H92.56q-.063-.953-.72-1.563-.655-.625-1.609-.625-1.28 0-2 .922-.703.922-.703 2.672v.328q0 1.703.703 2.625.704.922 2.016.922zm5.36-3.829q0-1.453.562-2.61.578-1.156 1.593-1.78 1.016-.626 2.313-.626 2.016 0 3.25 1.391 1.25 1.39 1.25 3.703v.125q0 1.438-.547 2.578-.547 1.141-1.578 1.782-1.016.64-2.36.64-2 0-3.25-1.39-1.234-1.407-1.234-3.704v-.109zm1.687.203q0 1.64.765 2.64.766.985 2.032.985 1.296 0 2.046-1 .75-1.015.75-2.828 0-1.625-.765-2.625-.766-1.016-2.047-1.016-1.25 0-2.016 1-.765.985-.765 2.844zm10.999-5.047l.047 1.235q1.125-1.406 2.953-1.406 3.125 0 3.156 3.515v6.516h-1.687V349.4q-.016-1.078-.5-1.578-.469-.516-1.485-.516-.812 0-1.437.438-.61.437-.969 1.156v7.016h-1.672v-9.86h1.594zm10.981-2.39v2.39h1.844v1.313h-1.844v6.11q0 .593.235.89.25.297.843.297.297 0 .813-.11v1.36q-.672.187-1.297.187-1.125 0-1.703-.687-.578-.688-.578-1.938v-6.11h-1.797v-1.312h1.797v-2.39h1.687zm8.579 3.906q-.39-.063-.844-.063-1.656 0-2.25 1.407v7h-1.672v-9.86h1.64l.016 1.141q.829-1.313 2.36-1.313.484 0 .75.125v1.563zm.912 3.328q0-1.453.562-2.61.578-1.156 1.594-1.78 1.016-.626 2.312-.626 2.016 0 3.25 1.391 1.25 1.39 1.25 3.703v.125q0 1.438-.546 2.578-.547 1.141-1.579 1.782-1.015.64-2.359.64-2 0-3.25-1.39-1.234-1.407-1.234-3.704v-.109zm1.687.203q0 1.64.766 2.64.765.985 2.031.985 1.297 0 2.047-1 .75-1.015.75-2.828 0-1.625-.766-2.625-.765-1.016-2.047-1.016-1.25 0-2.015 1-.766.985-.766 2.844zm11.234 4.813h-1.688v-14h1.688v14zm4.527 0h-1.687v-14h1.687v14zm6.778.187q-2 0-3.266-1.312-1.25-1.328-1.25-3.531v-.313q0-1.469.563-2.61.562-1.156 1.562-1.796 1.016-.656 2.188-.656 1.921 0 2.984 1.265 1.062 1.266 1.062 3.625v.688h-6.671q.03 1.468.843 2.375.828.89 2.078.89.891 0 1.516-.36.625-.374 1.078-.968l1.031.797q-1.234 1.906-3.718 1.906zm-.203-8.844q-1.016 0-1.72.75-.687.735-.843 2.079h4.938v-.125q-.079-1.282-.704-1.985-.609-.719-1.671-.719zm10.774.313q-.39-.063-.844-.063-1.656 0-2.25 1.407v7h-1.672v-9.86h1.64l.017 1.141q.828-1.313 2.359-1.313.484 0 .75.125v1.563z"
      fill="#666"/>
    <path
      d="M261.829 1.485c0-.29.235-.525.525-.525h168.399a.525.525 0 01.525.525V63.9c0 .29-.235.525-.525.525h-168.4a.525.525 0 01-.524-.525z"
      fill="#e8eaf6"
      fill-rule="evenodd"/>
    <path
      d="M298.706 19.597q0-2.297 1.063-3.657 1.062-1.359 2.828-1.359 1.797 0 2.812 1.266l.078-1.094h1.547v9.625q0 1.906-1.14 3-1.125 1.11-3.047 1.11-1.063 0-2.094-.454-1.016-.453-1.547-1.25l.875-1q1.078 1.328 2.656 1.328 1.22 0 1.907-.687.687-.688.687-1.953v-.844q-1 1.172-2.75 1.172-1.734 0-2.812-1.39-1.063-1.407-1.063-3.813zm1.688.203q0 1.656.687 2.61.688.952 1.922.952 1.594 0 2.328-1.453v-4.5q-.766-1.406-2.312-1.406-1.235 0-1.938.953-.687.953-.687 2.844zm15.263 4.812q-.14-.297-.234-1.031-1.172 1.219-2.813 1.219-1.453 0-2.39-.828-.922-.828-.922-2.094 0-1.531 1.156-2.375 1.172-.86 3.297-.86h1.64v-.78q0-.891-.53-1.407-.516-.531-1.547-.531-.907 0-1.516.469-.61.453-.61 1.093h-1.703q0-.734.516-1.422.531-.687 1.422-1.078.906-.406 1.984-.406 1.703 0 2.672.86.969.843 1 2.328v4.53q0 1.36.344 2.173v.14h-1.766zm-2.797-1.281q.797 0 1.5-.406.72-.422 1.032-1.078V19.83h-1.313q-3.11 0-3.11 1.813 0 .796.532 1.25.531.437 1.36.437zm9.148-10.969v2.39h1.844v1.313h-1.844v6.11q0 .594.235.89.25.297.844.297.296 0 .812-.11v1.36q-.672.188-1.297.188-1.125 0-1.703-.688-.578-.687-.578-1.937v-6.11h-1.797v-1.312h1.797v-2.39h1.687zM329.9 24.8q-2 0-3.266-1.313-1.25-1.328-1.25-3.531v-.312q0-1.47.562-2.61.563-1.156 1.563-1.797 1.016-.656 2.187-.656 1.922 0 2.985 1.266 1.062 1.265 1.062 3.625v.687h-6.672q.032 1.469.844 2.375.828.89 2.078.89.89 0 1.516-.359.625-.375 1.078-.968l1.031.797Q332.384 24.8 329.9 24.8zm-.204-8.844q-1.015 0-1.718.75-.688.734-.844 2.078h4.937v-.125q-.078-1.281-.703-1.984-.61-.719-1.672-.719zm8.76 4.094l-1.063 1.094v3.468h-1.688v-14h1.688v8.469l.906-1.078 3.062-3.25h2.047l-3.828 4.125 4.281 5.734h-1.984l-3.422-4.562zm10.6 4.75q-2 0-3.265-1.313-1.25-1.328-1.25-3.531v-.312q0-1.47.563-2.61.562-1.156 1.562-1.797 1.016-.656 2.188-.656 1.921 0 2.984 1.266 1.062 1.265 1.062 3.625v.687h-6.671q.03 1.469.843 2.375.828.89 2.078.89.891 0 1.516-.359.625-.375 1.078-.968l1.031.797q-1.234 1.906-3.718 1.906zm-.202-8.844q-1.016 0-1.72.75-.687.734-.843 2.078h4.938v-.125q-.079-1.281-.704-1.984-.609-.719-1.671-.719zM358.94 24.8q-2 0-3.265-1.313-1.25-1.328-1.25-3.531v-.312q0-1.47.562-2.61.563-1.156 1.563-1.797 1.015-.656 2.187-.656 1.922 0 2.985 1.266 1.062 1.265 1.062 3.625v.687h-6.672q.032 1.469.844 2.375.828.89 2.078.89.89 0 1.516-.359.625-.375 1.078-.968l1.031.797q-1.234 1.906-3.719 1.906zm-.203-8.844q-1.015 0-1.718.75-.688.734-.844 2.078h4.937v-.125q-.078-1.281-.703-1.984-.61-.719-1.672-.719zM373.06 19.8q0 2.25-1.032 3.625-1.015 1.375-2.78 1.375-1.798 0-2.829-1.14v4.75h-1.672V14.752h1.531l.079 1.094q1.03-1.266 2.859-1.266 1.781 0 2.812 1.344 1.032 1.328 1.032 3.719v.156zm-1.672-.203q0-1.657-.719-2.625-.703-.97-1.953-.97-1.531 0-2.297 1.36v4.703q.766 1.36 2.328 1.36 1.203 0 1.922-.953.719-.97.719-2.875zm7.904 5.203q-2 0-3.266-1.313-1.25-1.328-1.25-3.531v-.312q0-1.47.563-2.61.562-1.156 1.562-1.797 1.016-.656 2.188-.656 1.922 0 2.984 1.266 1.063 1.265 1.063 3.625v.687h-6.672q.031 1.469.844 2.375.828.89 2.078.89.89 0 1.515-.359.625-.375 1.079-.968l1.03.797q-1.234 1.906-3.718 1.906zm-.203-8.844q-1.016 0-1.719.75-.687.734-.844 2.078h4.938v-.125q-.078-1.281-.703-1.984-.61-.719-1.672-.719zm10.774.313q-.39-.063-.843-.063-1.657 0-2.25 1.406v7h-1.672v-9.86h1.64l.016 1.142q.828-1.313 2.36-1.313.484 0 .75.125v1.563zm5.048 3.39h-4.438v-1.375h4.438v1.375zM278.916 48.003q0-.688-.515-1.063-.516-.375-1.797-.64-1.281-.281-2.031-.656-.75-.391-1.11-.922-.359-.532-.359-1.266 0-1.203 1.016-2.031 1.03-.844 2.625-.844 1.671 0 2.718.86 1.047.859 1.047 2.218h-1.687q0-.703-.594-1.203-.594-.5-1.484-.5-.922 0-1.438.406-.516.39-.516 1.047 0 .61.485.922.484.313 1.734.594 1.266.281 2.047.672.781.39 1.156.937.391.547.391 1.344 0 1.328-1.063 2.125-1.046.797-2.734.797-1.187 0-2.11-.422-.906-.422-1.421-1.172-.516-.75-.516-1.625h1.688q.047.844.672 1.344.64.5 1.687.5.953 0 1.531-.39.578-.391.578-1.032zm7.964 2.797q-2 0-3.266-1.313-1.25-1.328-1.25-3.531v-.312q0-1.47.563-2.61.562-1.156 1.562-1.797 1.016-.656 2.188-.656 1.922 0 2.984 1.266 1.063 1.265 1.063 3.625v.687h-6.672q.031 1.469.844 2.375.828.89 2.078.89.89 0 1.515-.359.625-.375 1.078-.968l1.032.797q-1.235 1.906-3.72 1.906zm-.203-8.844q-1.016 0-1.719.75-.687.734-.844 2.078h4.938v-.125q-.078-1.281-.703-1.984-.61-.719-1.672-.719zm9.962 7.469q.89 0 1.562-.547.688-.547.75-1.375h1.594q-.047.844-.578 1.61-.531.765-1.438 1.234-.89.453-1.89.453-2.016 0-3.203-1.344-1.188-1.344-1.188-3.687v-.282q0-1.437.516-2.547.53-1.125 1.515-1.734 1-.625 2.344-.625 1.656 0 2.75 1 1.11.984 1.172 2.563h-1.594q-.062-.954-.719-1.563-.656-.625-1.609-.625-1.281 0-2 .922-.703.922-.703 2.672v.328q0 1.703.703 2.625.703.922 2.016.922zm11.89.219q-.984 1.156-2.89 1.156-1.579 0-2.407-.922-.812-.922-.828-2.703v-6.422h1.688v6.375q0 2.234 1.828 2.234 1.922 0 2.562-1.437v-7.172h1.688v9.86h-1.61l-.031-.97zm8.972-7.375q-.39-.063-.844-.063-1.656 0-2.25 1.406v7h-1.671v-9.86h1.64l.016 1.142q.828-1.313 2.36-1.313.484 0 .75.125v1.563zm3.376 8.343h-1.688v-9.86h1.688v9.86zm-1.829-12.468q0-.407.25-.688.25-.297.735-.297.5 0 .75.297.265.281.265.688 0 .406-.265.687-.25.266-.75.266-.485 0-.735-.266-.25-.281-.25-.687zm6.81.218v2.39h1.843v1.313h-1.844v6.11q0 .594.234.89.25.297.844.297.297 0 .813-.11v1.36q-.672.188-1.297.188-1.125 0-1.703-.688-.578-.687-.578-1.937v-6.11h-1.797v-1.312h1.797v-2.39h1.687zm7.03 9.782l2.298-7.391h1.797l-3.954 11.375q-.921 2.469-2.921 2.469l-.329-.032-.625-.125v-1.359l.454.031q.859 0 1.328-.343.484-.344.797-1.266l.375-1-3.516-9.75h1.844l2.453 7.39zm9.444 1.28q.89 0 1.562-.546.688-.547.75-1.375h1.594q-.047.844-.578 1.61-.531.765-1.438 1.234-.89.453-1.89.453-2.016 0-3.203-1.344-1.188-1.344-1.188-3.687v-.282q0-1.437.516-2.547.531-1.125 1.515-1.734 1-.625 2.344-.625 1.656 0 2.75 1 1.11.984 1.172 2.563h-1.594q-.062-.954-.718-1.563-.657-.625-1.61-.625-1.281 0-2 .922-.703.922-.703 2.672v.328q0 1.703.703 2.625.703.922 2.016.922zm9.89 1.376q-2 0-3.265-1.313-1.25-1.328-1.25-3.531v-.312q0-1.47.562-2.61.563-1.156 1.563-1.797 1.015-.656 2.187-.656 1.922 0 2.984 1.266 1.063 1.265 1.063 3.625v.687h-6.672q.031 1.469.844 2.375.828.89 2.078.89.89 0 1.516-.359.625-.375 1.078-.968l1.031.797q-1.234 1.906-3.719 1.906zm-.203-8.844q-1.016 0-1.719.75-.687.734-.843 2.078h4.937v-.125q-.078-1.281-.703-1.984-.61-.719-1.672-.719zm7.603-1.203l.047 1.234q1.125-1.406 2.953-1.406 3.125 0 3.156 3.516v6.515h-1.688v-6.515q-.015-1.078-.5-1.578-.468-.516-1.484-.516-.812 0-1.437.437-.61.438-.97 1.157v7.015h-1.671v-9.86h1.594zm10.98-2.39v2.39h1.845v1.312h-1.844v6.11q0 .594.234.89.25.297.844.297.297 0 .813-.11v1.36q-.672.188-1.297.188-1.125 0-1.703-.688-.579-.687-.579-1.937v-6.11h-1.796v-1.312h1.796v-2.39h1.688zm7.892 12.437q-2 0-3.266-1.313-1.25-1.328-1.25-3.531v-.312q0-1.47.563-2.61.562-1.156 1.562-1.797 1.016-.656 2.188-.656 1.922 0 2.984 1.266 1.063 1.265 1.063 3.625v.687h-6.672q.031 1.469.844 2.375.828.89 2.078.89.89 0 1.515-.359.625-.375 1.079-.968l1.03.797q-1.234 1.906-3.718 1.906zm-.203-8.844q-1.016 0-1.719.75-.687.734-.844 2.078h4.938v-.125q-.078-1.281-.703-1.984-.61-.719-1.672-.719zm10.774.313q-.39-.063-.843-.063-1.657 0-2.25 1.406v7H384.3v-9.86h1.64l.016 1.142q.828-1.313 2.36-1.313.484 0 .75.125v1.563zm16.182 4.14q-.25 2.094-1.563 3.25-1.297 1.14-3.469 1.14-2.343 0-3.765-1.687-1.422-1.687-1.422-4.515V43.33q0-1.86.656-3.25.672-1.406 1.875-2.156 1.219-.766 2.813-.766 2.11 0 3.39 1.188 1.282 1.172 1.485 3.265h-1.766q-.219-1.578-.984-2.281-.766-.719-2.125-.719-1.672 0-2.625 1.235-.953 1.234-.953 3.53v1.282q0 2.156.89 3.438.906 1.265 2.531 1.265 1.454 0 2.235-.656.781-.656 1.031-2.297h1.766zm4.143 2.766h6.28v1.437h-8.03V37.347h1.75v11.828zm10.163 1.437h-1.75V37.347h1.75v13.265z"
      fill="#666"/>
    <path d="M346.553 64.425c0 34.094 35.874 68.189 71.748 68.189" fill="none"/>
    <path
      d="M346.553 64.425c0 17.047 8.969 34.094 22.421 46.88 6.727 6.392 14.574 11.72 22.982 15.449 4.204 1.864 8.548 3.33 12.963 4.328a64.137 64.137 0 005.828 1.038l.712.087"
      stroke="#666" stroke-linecap="butt" stroke-linejoin="round"
      stroke-width="2"/>
    <path d="M411.46 132.207l-2.38 2.112 6.303-1.879-6.036-2.612z" fill="#666" fill-rule="evenodd"
      stroke="#666"
      stroke-linecap="butt" stroke-width="2"/>
    <path d="M284.16 78.377h76.22v31.906h-76.22z" fill="none"/>
    <path
      d="M301.547 99.863q.89 0 1.563-.547.687-.547.75-1.375h1.593q-.046.843-.578 1.61-.531.765-1.437 1.233-.89.454-1.89.454-2.016 0-3.204-1.344-1.187-1.344-1.187-3.688v-.28q0-1.438.515-2.548.531-1.125 1.516-1.734 1-.625 2.344-.625 1.656 0 2.75 1 1.109.984 1.171 2.562h-1.593q-.063-.953-.72-1.562-.655-.625-1.608-.625-1.282 0-2 .922-.704.922-.704 2.672v.328q0 1.703.704 2.625.703.922 2.015.922zm10.578-7.157q-.39-.062-.844-.062-1.656 0-2.25 1.406v7h-1.672v-9.86H309l.016 1.141q.828-1.312 2.359-1.312.484 0 .75.125v1.562zm5.452 8.532q-2 0-3.265-1.313-1.25-1.328-1.25-3.531v-.313q0-1.468.562-2.609.563-1.156 1.563-1.797 1.015-.656 2.187-.656 1.922 0 2.984 1.265 1.063 1.266 1.063 3.625v.688h-6.672q.031 1.469.844 2.375.828.89 2.078.89.89 0 1.516-.359.625-.375 1.078-.969l1.031.797q-1.234 1.907-3.719 1.907zm-.203-8.844q-1.016 0-1.719.75-.687.734-.843 2.078h4.937v-.125q-.078-1.281-.703-1.984-.61-.72-1.672-.72zm12.087 8.656q-.14-.297-.234-1.031-1.172 1.219-2.813 1.219-1.453 0-2.39-.829-.922-.828-.922-2.093 0-1.532 1.156-2.375 1.172-.86 3.297-.86h1.64v-.78q0-.892-.53-1.407-.516-.531-1.548-.531-.906 0-1.515.468-.61.453-.61 1.094h-1.703q0-.734.516-1.422.531-.687 1.422-1.078.906-.406 1.984-.406 1.703 0 2.672.86.969.843 1 2.327v4.532q0 1.359.344 2.171v.141h-1.766zm-2.797-1.281q.797 0 1.5-.406.719-.422 1.031-1.079V96.27h-1.312q-3.11 0-3.11 1.812 0 .797.532 1.25.531.438 1.36.438zm9.148-10.969v2.39h1.844v1.313h-1.844v6.11q0 .593.235.89.25.297.843.297.297 0 .813-.11v1.36q-.672.188-1.297.188-1.125 0-1.703-.688-.578-.687-.578-1.937v-6.11h-1.797v-1.312h1.797V88.8h1.687zm7.891 12.438q-2 0-3.265-1.313-1.25-1.328-1.25-3.531v-.313q0-1.468.562-2.609.563-1.156 1.563-1.797 1.015-.656 2.187-.656 1.922 0 2.985 1.265 1.062 1.266 1.062 3.625v.688h-6.672q.031 1.469.844 2.375.828.89 2.078.89.89 0 1.516-.359.625-.375 1.078-.969l1.031.797q-1.234 1.907-3.719 1.907zm-.203-8.844q-1.015 0-1.719.75-.687.734-.843 2.078h4.937v-.125q-.078-1.281-.703-1.984-.61-.72-1.672-.72z"
      fill="#666"/>
    <path d="M284.443 185.826h62.11v31.906h-62.11z" fill="none"/>
    <path
      d="M303.26 205.89q0-.688-.515-1.063t-1.797-.64q-1.281-.282-2.031-.657-.75-.39-1.11-.922-.359-.531-.359-1.265 0-1.203 1.016-2.032 1.031-.843 2.625-.843 1.672 0 2.719.859 1.047.86 1.047 2.219h-1.688q0-.703-.594-1.203-.593-.5-1.484-.5-.922 0-1.438.406-.515.39-.515 1.047 0 .61.484.922.485.312 1.735.593 1.265.282 2.046.672.782.39 1.157.938.39.547.39 1.344 0 1.328-1.062 2.125-1.047.796-2.735.796-1.187 0-2.109-.421-.906-.422-1.422-1.172-.515-.75-.515-1.625h1.687q.047.843.672 1.343.64.5 1.687.5.954 0 1.532-.39.578-.39.578-1.031zm7.105.14l2.297-7.39h1.797l-3.954 11.375q-.921 2.468-2.921 2.468l-.329-.031-.625-.125v-1.36l.454.032q.859 0 1.328-.344.484-.344.797-1.265l.375-1-3.516-9.75h1.844l2.453 7.39zm7.202-7.39l.047 1.234q1.125-1.406 2.953-1.406 3.125 0 3.156 3.515v6.516h-1.687v-6.516q-.016-1.078-.5-1.578-.47-.515-1.485-.515-.812 0-1.437.437-.61.438-.969 1.156v7.016h-1.672v-9.86h1.594zm12.653 8.671q.89 0 1.562-.546.688-.547.75-1.375h1.594q-.047.843-.578 1.609-.531.766-1.437 1.234-.891.453-1.891.453-2.016 0-3.203-1.343-1.188-1.344-1.188-3.688v-.281q0-1.438.516-2.547.531-1.125 1.516-1.734 1-.625 2.343-.625 1.657 0 2.75 1 1.11.984 1.172 2.562h-1.594q-.062-.953-.718-1.562-.657-.625-1.61-.625-1.28 0-2 .922-.703.921-.703 2.671v.329q0 1.703.703 2.625.703.921 2.016.921z"
      fill="#666"/>
    <path d="M202.482 324.997c47.055 0 94.11-47.748 94.11-95.496" fill="none"/>
    <path
      d="M202.482 324.997c23.528 0 47.055-11.937 64.701-29.843 8.823-8.953 16.175-19.397 21.322-30.588 2.573-5.596 4.595-11.378 5.974-17.253a81.032 81.032 0 001.574-8.871 76.489 76.489 0 00.435-5.025l.024-.49"
      stroke="#757575" stroke-dasharray="4.0,3.0" stroke-linecap="butt"
      stroke-linejoin="round"/>
    <path d="M296.512 232.927l1.098 1.15-1.052-3.115-1.196 3.063z" fill="#757575"
      fill-rule="evenodd"
      stroke="#757575" stroke-linecap="butt"/>
    <path d="M202.482 324.997c44.835 0 89.67-75.04 89.67-150.079" fill="none"/>
    <path
      d="M202.482 324.997c22.418 0 44.835-18.76 61.648-46.9 8.406-14.07 15.412-30.485 20.316-48.072a212.65 212.65 0 005.692-27.114c.656-4.616 1.16-9.27 1.5-13.941a196.836 196.836 0 00.48-10.535l.002-.09"
      stroke="#757575" stroke-dasharray="4.0,3.0" stroke-linecap="butt"
      stroke-linejoin="round"/>
    <path d="M292.12 178.345l1.115 1.135-1.097-3.1-1.152 3.08z" fill="#757575" fill-rule="evenodd"
      stroke="#757575" stroke-linecap="butt"/>
  </g>
</svg>
